<?xml version="1.0" standalone="no"?>
<!DOCTYPE svg PUBLIC "-//W3C//DTD SVG 20010904//EN"
 "http://www.w3.org/TR/2001/REC-SVG-20010904/DTD/svg10.dtd">
<svg version="1.0" xmlns="http://www.w3.org/2000/svg"
 width="512.000000pt" height="512.000000pt" viewBox="0 0 512.000000 512.000000"
 preserveAspectRatio="xMidYMid meet">

<g transform="translate(0.000000,512.000000) scale(0.100000,-0.100000)"
fill="#000000" stroke="none">
<path d="M2790 4890 c-52 -12 -58 -44 -58 -348 1 -203 4 -285 14 -309 13 -34
26 -39 149 -63 119 -24 314 -91 420 -145 333 -172 578 -418 741 -744 102 -206
158 -417 170 -636 9 -155 -3 -337 -21 -333 -7 2 -80 82 -161 178 -267 314
-427 501 -564 660 -74 86 -182 213 -240 281 -58 68 -217 254 -354 414 -137
159 -259 306 -272 326 -24 38 -58 53 -98 43 -14 -3 -75 -66 -153 -157 -183
-214 -695 -815 -948 -1112 -117 -137 -270 -317 -340 -400 -71 -82 -133 -150
-139 -150 -18 0 -19 232 -1 358 19 140 37 215 82 342 142 404 433 734 819 931
97 49 316 126 398 139 21 4 49 17 62 30 l24 24 0 306 0 306 -25 24 c-13 14
-34 25 -47 25 -53 -1 -170 -24 -303 -60 -787 -212 -1433 -856 -1640 -1635 -69
-261 -80 -347 -80 -645 0 -240 8 -344 35 -450 5 -19 23 -89 39 -155 26 -104
57 -200 100 -309 76 -194 298 -542 365 -575 54 -25 23 -56 620 617 142 161
261 292 264 292 3 0 21 -19 41 -42 20 -23 225 -259 457 -523 231 -265 424
-487 429 -495 7 -11 -11 -12 -103 -6 -299 18 -606 127 -852 302 -150 107 -138
110 -309 -83 -272 -309 -261 -295 -261 -334 0 -31 7 -42 42 -71 153 -124 370
-255 553 -333 22 -9 49 -21 60 -26 43 -19 234 -78 315 -98 227 -55 499 -80
703 -62 252 21 418 55 641 131 96 33 110 39 256 108 446 211 862 628 1074
1077 67 140 73 156 106 251 76 224 110 391 131 643 9 112 9 176 0 290 -18 214
-34 304 -97 541 -32 121 -143 380 -219 508 -228 387 -565 705 -959 906 -66 34
-139 69 -161 78 -22 8 -71 27 -108 42 -171 66 -529 142 -597 126z m145 -80
c732 -116 1373 -590 1695 -1255 138 -284 204 -529 231 -857 11 -137 10 -180
-4 -335 -26 -274 -57 -409 -153 -658 -84 -218 -215 -440 -368 -622 -288 -343
-664 -596 -1083 -727 -260 -81 -573 -118 -828 -97 -154 13 -178 16 -349 51
-188 39 -450 139 -621 237 -83 48 -258 165 -310 208 -27 22 -28 26 -14 42 68
81 353 403 356 403 2 0 34 -22 71 -49 207 -150 418 -243 677 -299 106 -22 144
-25 330 -26 221 -1 284 6 453 50 210 55 408 151 592 286 105 78 290 258 290
282 0 9 -289 353 -642 764 -352 411 -669 779 -702 819 -34 39 -64 71 -67 70
-3 -1 -51 -57 -105 -123 -232 -284 -289 -356 -292 -363 -1 -4 57 -75 130 -158
274 -309 784 -880 835 -937 30 -32 53 -63 51 -70 -2 -6 -112 -118 -244 -249
l-242 -239 -443 509 c-244 279 -464 530 -489 556 l-46 49 -201 -229 c-375
-425 -638 -717 -649 -720 -6 -2 -34 27 -62 64 -170 231 -315 537 -376 798 -31
131 -35 150 -48 225 -18 102 -18 568 0 670 30 176 87 388 133 498 5 12 13 32
18 45 160 398 478 785 848 1030 266 177 628 321 891 353 l52 7 0 -280 c0 -292
-2 -303 -44 -303 -11 0 -33 -4 -50 -9 -17 -5 -71 -22 -121 -37 -245 -74 -497
-231 -695 -434 -331 -339 -508 -798 -487 -1261 7 -139 20 -256 31 -267 4 -3
21 12 39 33 35 44 526 621 642 755 63 73 704 827 894 1052 36 43 71 78 76 77
6 0 37 -33 71 -72 116 -137 447 -526 845 -992 113 -132 285 -334 384 -450 98
-115 220 -257 269 -315 50 -58 102 -119 114 -135 22 -27 25 -28 36 -13 37 51
56 496 28 653 -59 331 -187 607 -396 854 -224 266 -573 480 -896 551 -30 7
-65 16 -78 21 -13 5 -38 9 -57 9 -19 0 -37 5 -40 10 -7 11 -7 549 0 560 5 8 9
7 120 -10z m-358 -1918 c92 -110 119 -142 278 -326 72 -83 280 -324 462 -536
473 -551 476 -555 485 -558 16 -7 8 -32 -19 -62 -44 -49 -209 -187 -290 -241
-215 -146 -511 -251 -768 -273 l-70 -6 262 258 c168 166 264 268 268 285 9 36
3 45 -161 229 -75 84 -167 187 -203 228 -36 41 -107 119 -156 175 -143 159
-315 352 -404 452 l-81 92 47 58 c181 225 257 313 267 312 6 0 44 -39 83 -87z"/>
</g>
</svg>
